<?xml version="1.0" encoding="UTF-8"?>
<svg id="Capa_1" data-name="Capa 1" xmlns="http://www.w3.org/2000/svg" viewBox="0 0 485.74 208.45">
  <defs>
    <style>
      .cls-1 {
        fill: #fff;
      }
    </style>
  </defs>
  <path class="cls-1" d="M86.62,87.04v33.48h-51.93l.07,80.91H.4l-.4-80.19v-60.39c0-8.32,2.25-16.46,5.35-23.77,3.1-7.3,7.37-13.71,12.79-19.23,5.43-5.51,11.81-9.84,19.17-12.98C44.67,1.72,52.47.14,60.75.14l34.03-.14.11,34.5-34.14.05c-7.16,0-13.25,2.53-18.28,7.59-5.03,5.06-7.55,11.19-7.55,18.39l-.06,26.31,51.75.21Z"/>
  <path class="cls-1" d="M173.56,115.53l.05,85.9h-34.83l-.11-51.25h-34.58v-34.53l69.48-.12Z"/>
  <path class="cls-1" d="M155.99,55.38l24.77,23.89-23.89,24.77-24.77-23.89,23.89-24.77Z"/>
  <path class="cls-1" d="M485.74,82.33v120.07h-11.44l-14.94-10.37c-6.15,5.24-12.99,9.28-20.51,12.1-7.53,2.83-15.53,4.25-24,4.25-9.54,0-18.49-1.84-26.86-5.5-8.38-3.66-15.69-8.64-21.93-14.93-6.25-6.28-11.18-13.62-14.78-22-3.61-8.38-5.4-17.39-5.4-27.03s1.8-18.7,5.4-27.19c3.6-8.48,8.53-15.87,14.78-22.16,6.25-6.28,13.56-11.26,21.93-14.93,8.37-3.66,17.33-5.5,26.86-5.5,7.41,0,14.57,1.15,21.46,3.46,6.88,2.31,13.19,5.55,18.91,9.74h30.52ZM414.85,176.31c5.09,0,9.8-.99,14.15-2.98,4.34-1.98,8.21-4.69,11.6-8.14,3.39-3.44,6.04-7.4,7.95-11.9,1.91-4.49,2.86-9.34,2.86-14.55s-.95-10.07-2.86-14.55c-1.91-4.49-4.56-8.46-7.95-11.9-3.39-3.45-7.26-6.16-11.6-8.14-4.35-1.99-9.06-2.98-14.15-2.98s-9.81.99-14.15,2.98c-4.35,1.98-8.22,4.69-11.6,8.14-3.4,3.44-6.04,7.4-7.95,11.9-1.91,4.49-2.86,9.33-2.86,14.55s.95,10.07,2.86,14.55c1.91,4.49,4.56,8.46,7.95,11.9,3.38,3.45,7.25,6.16,11.6,8.14,4.34,1.99,9.06,2.98,14.15,2.98Z"/>
  <path class="cls-1" d="M288.73,165.29c-3.36,3.43-7.19,6.16-11.48,8.15-4.29,1.98-8.96,2.97-13.98,2.97s-9.7-.99-13.99-2.97c-4.3-1.99-8.13-4.72-11.48-8.15-3.36-3.45-5.98-7.42-7.85-11.89-1.88-4.5-2.82-9.35-2.82-14.56s.95-10.06,2.82-14.56c1.88-4.48,4.5-8.45,7.85-11.89,3.35-3.44,7.18-6.16,11.48-8.15,4.29-1.99,8.95-2.97,13.99-2.97s9.69.98,13.98,2.97c4.29,1.99,8.12,4.7,11.48,8.15,2.97,3.04,5.37,6.52,7.19,10.41h33.76c-.86-3.78-2.05-7.44-3.54-11.01-3.58-8.47-8.44-15.87-14.63-22.15-6.18-6.29-13.41-11.26-21.69-14.93-8.28-3.66-17.13-5.5-26.55-5.5s-18.29,1.84-26.56,5.5c-8.28,3.67-15.52,8.64-21.7,14.93-6.18,6.28-11.04,13.67-14.61,22.15-3.58,8.5-5.36,17.56-5.36,27.19s1.78,18.67,5.36,27.03c3.56,8.4,8.42,15.72,14.61,22.01,6.18,6.28,13.42,11.26,21.7,14.92,8.27,3.66,17.12,5.5,26.56,5.5s18.27-1.84,26.55-5.5c8.28-3.66,15.5-8.64,21.69-14.92,6.19-6.29,11.05-13.61,14.63-22.01,1.18-2.79,2.17-5.64,2.97-8.57h-34.52c-1.6,2.86-3.55,5.48-5.85,7.84Z"/>
</svg>