<?xml version="1.0" encoding="UTF-8"?>
<svg id="Capa_1" data-name="Capa 1" xmlns="http://www.w3.org/2000/svg" viewBox="0 0 611.13 262.26">
  <defs>
    <style>
      .cls-1 {
        fill: #fff;
      }
    </style>
  </defs>
  <path class="cls-1" d="M108.98,109.51v42.12H43.65l.08,101.8H.51l-.51-100.89v-75.98c0-10.47,2.83-20.71,6.73-29.91,3.9-9.19,9.27-17.25,16.09-24.19,6.83-6.93,14.86-12.37,24.12-16.33C56.2,2.16,66.02.18,76.44.18l42.82-.18.14,43.41-42.95.06c-9.01,0-16.67,3.18-23,9.55-6.33,6.37-9.5,14.07-9.5,23.13l-.07,33.1,65.11.26Z"/>
  <path class="cls-1" d="M218.37,145.36l.06,108.08h-43.82l-.14-64.49-43.51-.02v-43.43l87.41-.15Z"/>
  <path class="cls-1" d="M196.26,69.67l31.16,30.05-30.05,31.16-31.16-30.05,30.05-31.16Z"/>
  <path class="cls-1" d="M611.13,103.59v151.06h-14.4l-18.8-13.05c-7.74,6.6-16.34,11.67-25.8,15.23-9.47,3.56-19.54,5.34-30.2,5.34-12,0-23.27-2.32-33.8-6.92-10.54-4.61-19.74-10.88-27.6-18.79-7.87-7.9-14.07-17.13-18.6-27.68-4.54-10.55-6.8-21.88-6.8-34.01s2.26-23.53,6.8-34.21c4.53-10.67,10.73-19.96,18.6-27.88,7.86-7.9,17.06-14.17,27.6-18.78,10.53-4.61,21.8-6.92,33.8-6.92,9.33,0,18.33,1.45,27,4.35,8.66,2.9,16.6,6.98,23.79,12.26h38.4ZM521.94,221.83c6.4,0,12.33-1.25,17.8-3.74,5.46-2.49,10.33-5.9,14.6-10.24,4.26-4.33,7.6-9.32,10-14.97,2.4-5.64,3.6-11.75,3.6-18.31s-1.2-12.67-3.6-18.31c-2.4-5.65-5.74-10.64-10-14.97-4.26-4.33-9.14-7.75-14.6-10.24-5.47-2.5-11.4-3.74-17.8-3.74s-12.34,1.25-17.8,3.74c-5.47,2.49-10.34,5.9-14.6,10.24-4.27,4.33-7.6,9.32-10,14.97-2.4,5.64-3.6,11.74-3.6,18.31s1.2,12.67,3.6,18.31c2.4,5.65,5.73,10.64,10,14.97,4.26,4.33,9.13,7.75,14.6,10.24,5.46,2.5,11.4,3.74,17.8,3.74Z"/>
  <path class="cls-1" d="M363.26,207.95c-4.22,4.32-9.04,7.75-14.44,10.25-5.4,2.49-11.27,3.74-17.58,3.74s-12.2-1.25-17.6-3.74c-5.41-2.5-10.23-5.93-14.44-10.25-4.22-4.35-7.52-9.33-9.88-14.96-2.36-5.66-3.55-11.76-3.55-18.32s1.19-12.66,3.55-18.32c2.36-5.64,5.66-10.63,9.88-14.96,4.21-4.33,9.03-7.75,14.44-10.25,5.4-2.5,11.25-3.74,17.6-3.74s12.19,1.24,17.58,3.74c5.4,2.5,10.22,5.92,14.44,10.25,3.74,3.83,6.76,8.2,9.04,13.1h42.47c-1.08-4.76-2.58-9.36-4.45-13.85-4.5-10.66-10.61-19.96-18.41-27.86-7.78-7.92-16.87-14.17-27.28-18.79-10.42-4.61-21.55-6.92-33.4-6.92s-23.01,2.32-33.41,6.92c-10.42,4.62-19.52,10.87-27.3,18.79-7.78,7.9-13.89,17.2-18.38,27.86-4.5,10.69-6.74,22.1-6.74,34.21s2.24,23.49,6.74,34.01c4.48,10.57,10.6,19.78,18.38,27.69,7.78,7.9,16.88,14.17,27.3,18.77,10.4,4.61,21.53,6.92,33.41,6.92s22.98-2.32,33.4-6.92c10.42-4.61,19.51-10.87,27.28-18.77,7.79-7.92,13.91-17.13,18.41-27.69,1.48-3.51,2.73-7.09,3.74-10.78h-43.43c-2.01,3.6-4.47,6.89-7.37,9.87Z"/>
</svg>