<?xml version="1.0" encoding="UTF-8"?>
<svg id="Capa_1" xmlns="http://www.w3.org/2000/svg" version="1.1" viewBox="0 0 65.2 65.2">
  <!-- Generator: Adobe Illustrator 29.8.3, SVG Export Plug-In . SVG Version: 2.1.1 Build 3)  -->
  <defs>
    <style>
      .st0 {
        fill: none;
        fill-rule: evenodd;
        stroke: #fff;
        stroke-miterlimit: 10;
        stroke-width: 2.31px;
      }
    </style>
  </defs>
  <path class="st0" d="M46.96,38.52c-.74-.41-4.37-2.36-5.05-2.64-.68-.28-1.17-.42-1.71.32-.53.73-2.03,2.37-2.49,2.86-.46.49-.9.53-1.64.13-.73-.41-3.13-1.29-5.91-3.96-2.16-2.08-3.58-4.6-3.99-5.37-.42-.77,0-1.16.39-1.52.35-.33.78-.85,1.18-1.28.39-.42.53-.73.8-1.23.27-.49.16-.94-.01-1.32-.17-.38-1.54-4.14-2.11-5.67-.57-1.53-1.2-1.3-1.65-1.32-.44-.02-.93-.1-1.44-.12-.51-.02-1.32.14-2.04.86-.72.73-2.73,2.48-2.87,6.18-.14,3.7,2.43,7.38,2.78,7.89.35.52,4.89,8.54,12.42,11.84,7.54,3.3,7.58,2.3,8.96,2.22,1.39-.08,4.52-1.66,5.22-3.39.69-1.74.75-3.24.57-3.56-.18-.32-.67-.53-1.41-.93h0ZM33.14,2.34C16.87,2.34,3.67,15.54,3.67,31.82c0,5.57,1.55,10.78,4.23,15.22l-5.32,15.82,16.32-5.23c4.22,2.34,9.08,3.67,14.24,3.67,16.29,0,29.48-13.2,29.48-29.48S49.42,2.34,33.14,2.34h0Z"/>
</svg>