<?xml version="1.0" encoding="UTF-8"?>
<svg id="Capa_1" data-name="Capa 1" xmlns="http://www.w3.org/2000/svg" viewBox="0 0 48.5 48.83">
  <defs>
    <style>
      .cls-1 {
        fill: none;
        stroke: #fff;
        stroke-miterlimit: 10;
        stroke-width: 2.31px;
      }
    </style>
  </defs>
  <path class="cls-1" d="M36.39,10.63c-1.46,0-2.64,1.18-2.64,2.64s1.18,2.63,2.64,2.63,2.64-1.18,2.64-2.63-1.18-2.64-2.64-2.64Z"/>
  <path class="cls-1" d="M24.67,14.1c-5.51,0-9.99,4.48-9.99,9.99s4.48,9.99,9.99,9.99,9.99-4.48,9.99-9.99-4.48-9.99-9.99-9.99Z"/>
  <path class="cls-1" d="M33.56,46.58H15.61c-7.45,0-13.51-6.06-13.51-13.51V15.11C2.09,7.67,8.16,1.61,15.61,1.61h17.95c7.45,0,13.51,6.06,13.51,13.51v17.96c0,7.45-6.06,13.51-13.51,13.51Z"/>
</svg>